HIERARCHY
ROOT Hips
{
	OFFSET 0.00000 0.00000 0.00000
	CHANNELS 6 Xposition Yposition Zposition Zrotation Yrotation Xrotation 
	JOINT LHipJoint
	{
		OFFSET 0 0 0
		CHANNELS 3 Zrotation Yrotation Xrotation
		JOINT LeftUpLeg
		{
			OFFSET 1.81638 -1.86202 0.89635
			CHANNELS 3 Zrotation Yrotation Xrotation
			JOINT LeftLeg
			{
				OFFSET 2.63464 -7.23861 0.00000
				CHANNELS 3 Zrotation Yrotation Xrotation
				JOINT LeftFoot
				{
					OFFSET 2.45871 -6.75336 0.00000
					CHANNELS 3 Zrotation Yrotation Xrotation
					JOINT LeftToeBase
					{
						OFFSET 0.34235 -0.94059 2.20020
						CHANNELS 3 Zrotation Yrotation Xrotation
						End Site
						{
							OFFSET 0.00000 -0.00000 1.18611
						}
					}
				}
			}
		}
	}
	JOINT RHipJoint
	{
		OFFSET 0 0 0
		CHANNELS 3 Zrotation Yrotation Xrotation
		JOINT RightUpLeg
		{
			OFFSET -1.84405 -1.86203 0.89635
			CHANNELS 3 Zrotation Yrotation Xrotation
			JOINT RightLeg
			{
				OFFSET -2.71067 -7.44751 0.00000
				CHANNELS 3 Zrotation Yrotation Xrotation
				JOINT RightFoot
				{
					OFFSET -2.47159 -6.79060 0.00000
					CHANNELS 3 Zrotation Yrotation Xrotation
					JOINT RightToeBase
					{
						OFFSET -0.26223 -0.72048 2.36007
						CHANNELS 3 Zrotation Yrotation Xrotation
						End Site
						{
							OFFSET -0.00000 -0.00000 1.23343
						}
					}
				}
			}
		}
	}
	JOINT LowerBack
	{
		OFFSET 0 0 0
		CHANNELS 3 Zrotation Yrotation Xrotation
		JOINT Spine
		{
			OFFSET 0.02089 1.99248 -0.22512
			CHANNELS 3 Zrotation Yrotation Xrotation
			JOINT Spine1
			{
				OFFSET 0.01476 2.01356 -0.03079
				CHANNELS 3 Zrotation Yrotation Xrotation
				JOINT Neck
				{
					OFFSET 0 0 0
					CHANNELS 3 Zrotation Yrotation Xrotation
					JOINT Neck1
					{
						OFFSET 0.04846 1.65098 0.06663
						CHANNELS 3 Zrotation Yrotation Xrotation
						JOINT Head
						{
							OFFSET -0.06061 1.60634 -0.07565
							CHANNELS 3 Zrotation Yrotation Xrotation
							End Site
							{
								OFFSET -0.02954 1.73562 -0.03642
							}
						}
					}
				}
				JOINT LeftShoulder
				{
					OFFSET 0 0 0
					CHANNELS 3 Zrotation Yrotation Xrotation
					JOINT LeftArm
					{
						OFFSET 3.45234 1.47051 -0.06993
						CHANNELS 3 Zrotation Yrotation Xrotation
						JOINT LeftForeArm
						{
							OFFSET 5.49313 -0.00000 0.00000
							CHANNELS 3 Zrotation Yrotation Xrotation
							JOINT LeftHand
							{
								OFFSET 3.29037 -0.00000 0.00000
								CHANNELS 3 Zrotation Yrotation Xrotation
								JOINT LeftFingerBase
								{
									OFFSET 0 0 0
									CHANNELS 3 Zrotation Yrotation Xrotation
									JOINT LeftHandIndex1
									{
										OFFSET 0.72966 -0.00000 0.00000
										CHANNELS 3 Zrotation Yrotation Xrotation
										End Site
										{
											OFFSET 0.58827 -0.00000 0.00000
										}
									}
								}
								JOINT LThumb
								{
									OFFSET 0 0 0
									CHANNELS 3 Zrotation Yrotation Xrotation
									End Site
									{
										OFFSET 0.59725 -0.00000 0.59725
									}
								}
							}
						}
					}
				}
				JOINT RightShoulder
				{
					OFFSET 0 0 0
					CHANNELS 3 Zrotation Yrotation Xrotation
					JOINT RightArm
					{
						OFFSET -3.41935 1.44327 0.20453
						CHANNELS 3 Zrotation Yrotation Xrotation
						JOINT RightForeArm
						{
							OFFSET -5.23684 -0.00000 0.00000
							CHANNELS 3 Zrotation Yrotation Xrotation
							JOINT RightHand
							{
								OFFSET -3.38251 -0.00000 0.00000
								CHANNELS 3 Zrotation Yrotation Xrotation
								JOINT RightFingerBase
								{
									OFFSET 0 0 0
									CHANNELS 3 Zrotation Yrotation Xrotation
									JOINT RightHandIndex1
									{
										OFFSET -0.69145 -0.00000 0.00000
										CHANNELS 3 Zrotation Yrotation Xrotation
										End Site
										{
											OFFSET -0.55747 -0.00000 0.00000
										}
									}
								}
								JOINT RThumb
								{
									OFFSET 0 0 0
									CHANNELS 3 Zrotation Yrotation Xrotation
									End Site
									{
										OFFSET -0.56598 -0.00000 0.56598
									}
								}
							}
						}
					}
				}
			}
		}
	}
}
MOTION
Frames: 14
Frame Time: .0083333
-29.7534 17.4452 -2.8350 -409.3630 87.8151 -406.9400 0.0000 0.0000 0.0000 -7.1154 7.0308 -11.8492 5.4857 13.9107 42.8811 1.0602 -16.2269 -20.2182 0.8037 -5.7217 -15.9790 0.0000 0.0000 0.0000 13.2992 9.7807 -12.5523 -2.6303 -10.0711 29.2072 -0.8483 -0.6409 -17.6472 -1.3380 7.3240 -20.6788 3.2983 -1.1089 17.1739 3.8332 -0.3547 3.5930 2.2789 -0.0924 -5.7746 6.1876 1.5239 0.6607 -15.2485 0.8637 -15.3461 -5.8806 1.1427 -4.4987 0.0000 -0.0000 0.0000 -73.7865 13.4769 34.9942 43.3557 -49.9370 -20.9726 -0.0000 -0.0000 0.9173 10.6824 3.4814 0.6563 -7.1250 0.0000 -0.0000 -12.9396 33.3132 3.7897 0.0000 -0.0000 0.0000 79.5846 -14.2569 21.3427 -75.9888 59.2451 -47.8967 0.0000 0.0000 7.7240 -30.0116 3.4533 -1.9927 7.1250 -0.0000 -0.0000 -2.5724 -25.9921 -1.1860
-29.7453 17.4758 -2.8060 -432.2460 87.7447 -429.7640 0.0000 0.0000 0.0000 -6.2093 5.9484 -12.3784 5.4890 13.9142 42.8948 1.0452 -16.3818 -20.1663 0.7675 -5.5943 -15.6117 0.0000 0.0000 0.0000 14.0311 9.4651 -11.9295 -2.4487 -9.7440 28.1516 -0.7932 -1.3493 -17.3650 -1.3118 7.2550 -20.4730 3.8433 -1.2031 17.0877 4.0804 -0.3566 3.5081 2.2350 -0.0969 -5.8215 6.3271 1.5352 0.5318 -15.5874 0.8681 -15.1491 -6.0075 1.1480 -4.4095 -0.0000 0.0000 0.0000 -74.2392 13.5138 35.3160 42.4590 -49.4611 -20.2887 -0.0000 -0.0000 1.3467 8.1803 3.0597 0.4396 -7.1250 0.0000 -0.0000 -14.8580 32.8041 4.5723 -0.0000 0.0000 0.0000 79.9925 -14.6106 21.0676 -77.8300 59.4329 -49.4806 0.0000 0.0000 7.6733 -29.9350 3.7866 -2.1778 7.1250 -0.0000 -0.0000 -2.4971 -25.6116 -1.1734
-29.7346 17.5050 -2.7791 -449.1770 87.3962 -446.6840 0.0000 0.0000 0.0000 -5.3698 4.9306 -12.7604 5.4246 13.8466 42.6264 1.0785 -16.2529 -20.3551 0.7546 -5.5482 -15.4789 0.0000 0.0000 0.0000 14.7331 9.2860 -11.2201 -2.2743 -9.4155 27.1038 -0.7367 -2.1230 -17.1161 -1.2828 7.1774 -20.2420 4.2907 -1.2515 16.9796 4.2997 -0.3210 3.4420 2.2081 -0.0819 -5.8363 6.4884 1.5438 0.4129 -15.8784 0.8778 -14.9162 -6.1218 1.1495 -4.3113 -0.0000 0.0000 0.0000 -74.6350 13.6009 35.6389 41.6585 -49.0224 -19.6823 -0.0000 -0.0000 1.7044 5.5446 2.4943 0.2421 -7.1250 0.0000 -0.0000 -16.8244 32.1590 5.4962 -0.0000 0.0000 0.0000 80.1922 -14.9296 21.0265 -79.9810 59.6173 -51.3344 0.0000 0.0000 7.6806 -29.8062 4.0976 -2.3440 7.1250 -0.0000 -0.0000 -2.3837 -25.2596 -1.1395
-29.7217 17.5323 -2.7552 -459.4830 86.9795 -457.0150 0.0000 0.0000 0.0000 -4.6589 3.9945 -12.9896 5.2955 13.7091 42.0844 1.1536 -15.8212 -20.7356 0.7589 -5.5634 -15.5227 0.0000 0.0000 0.0000 15.3440 9.2324 -10.4596 -2.1117 -9.0950 26.0929 -0.6799 -2.9144 -16.9014 -1.2540 7.0993 -20.0100 4.6140 -1.2494 16.8563 4.4655 -0.2497 3.3890 2.1860 -0.0486 -5.8282 6.6647 1.5532 0.2891 -16.1135 0.8992 -14.6271 -6.2189 1.1489 -4.1949 -0.0000 0.0000 0.0000 -74.9508 13.7435 35.9758 40.9446 -48.6197 -19.1450 -0.0000 -0.0000 1.9631 2.9166 1.8727 0.0954 -7.1250 0.0000 -0.0000 -18.7360 31.4696 6.5094 -0.0000 0.0000 0.0000 80.1913 -15.1990 21.2110 -82.4272 59.7822 -53.4466 0.0000 0.0000 7.7584 -29.6454 4.3973 -2.4986 7.1250 -0.0000 -0.0000 -2.2471 -24.9233 -1.0917
-29.7063 17.5584 -2.7342 -465.7250 86.6280 -463.3240 0.0000 0.0000 0.0000 -4.1121 3.1505 -13.0607 5.1079 13.5042 41.2866 1.2550 -15.0900 -21.2192 0.7658 -5.5883 -15.5946 0.0000 0.0000 0.0000 15.8306 9.2828 -9.6611 -1.9642 -8.7911 25.1440 -0.6250 -3.6936 -16.7322 -1.2257 7.0218 -19.7800 4.7973 -1.1985 16.7236 4.5645 -0.1490 3.3486 2.1647 -0.0003 -5.8007 6.8356 1.5659 0.1508 -16.2787 0.9367 -14.2670 -6.2900 1.1480 -4.0541 0.0000 0.0000 0.0000 -75.1713 13.9367 36.3440 40.3044 -48.2492 -18.6660 -0.0000 -0.0000 2.1127 0.4150 1.2955 0.0094 -7.1250 0.0000 -0.0000 -20.5201 30.8335 7.5392 0.0000 0.0000 0.0000 79.9968 -15.4016 21.5910 -85.1650 59.9115 -55.8140 0.0000 0.0000 7.9049 -29.4457 4.6948 -2.6455 7.1250 -0.0000 -0.0000 -2.0817 -24.5925 -1.0272
-29.6886 17.5832 -2.7162 -469.7650 86.3977 -467.4710 0.0000 0.0000 0.0000 -3.7478 2.3930 -12.9775 4.8707 13.2367 40.2612 1.3682 -14.0826 -21.7404 0.7722 -5.6111 -15.6602 0.0000 0.0000 0.0000 16.1772 9.4099 -8.8401 -1.8336 -8.5105 24.2756 -0.5738 -4.4370 -16.6148 -1.1984 6.9459 -19.5552 4.8373 -1.0999 16.5710 4.5919 -0.0223 3.3273 2.1416 0.0613 -5.7413 6.9954 1.5812 -0.0101 -16.3758 0.9889 -13.8328 -6.3346 1.1464 -3.8872 -0.0000 -0.0000 0.0000 -75.2836 14.1658 36.7710 39.7331 -47.9110 -18.2409 -0.0000 -0.0000 2.1594 -1.8447 0.8171 -0.0263 -7.1250 0.0000 -0.0000 -22.1072 30.3012 8.5122 -0.0000 -0.0000 0.0000 79.6134 -15.5092 22.1236 -88.1781 59.9875 -58.4222 0.0000 0.0000 8.1101 -29.2143 4.9905 -2.7850 7.1250 -0.0000 -0.0000 -1.8935 -24.2668 -0.9485
-29.6684 17.6065 -2.7009 -472.7130 86.2995 -470.5700 0.0000 0.0000 0.0000 -3.5595 1.6980 -12.7362 4.5948 12.9124 39.0415 1.4780 -12.8694 -22.2427 0.7763 -5.6257 -15.7021 0.0000 0.0000 0.0000 16.3873 9.5833 -8.0020 -1.7200 -8.2566 23.4963 -0.5272 -5.1287 -16.5492 -1.1711 6.8692 -19.3285 4.7512 -0.9641 16.4076 4.5442 0.1210 3.3207 2.1060 0.1314 -5.6599 7.1387 1.5992 -0.1862 -16.4052 1.0547 -13.3262 -6.3523 1.1447 -3.6963 -0.0000 0.0000 0.0000 -75.2756 14.4309 37.2741 39.2227 -47.6026 -17.8630 -0.0000 -0.0000 2.1221 -3.7779 0.4642 -0.0307 -7.1250 0.0000 -0.0000 -23.4511 29.8970 9.3653 -0.0000 0.0000 0.0000 79.0462 -15.5063 22.7773 -91.4362 59.9922 -61.2437 0.0000 0.0000 8.3631 -28.9451 5.2755 -2.9110 7.1250 -0.0000 -0.0000 -1.6783 -23.9568 -0.8526
-29.6461 17.6277 -2.6881 -475.0350 86.3092 -473.0820 0.0000 0.0000 0.0000 -3.5082 1.0232 -12.3429 4.2924 12.5396 37.6688 1.5719 -11.5686 -22.6857 0.7730 -5.6138 -15.6678 0.0000 0.0000 0.0000 16.4913 9.7845 -7.1604 -1.6228 -8.0316 22.8102 -0.4854 -5.7606 -16.5270 -1.1430 6.7891 -19.0920 4.5715 -0.7987 16.2321 4.4293 0.2784 3.3251 2.0487 0.2084 -5.5602 7.2606 1.6226 -0.3610 -16.3661 1.1363 -12.7642 -6.3430 1.1458 -3.4892 0.0000 -0.0000 0.0000 -75.1428 14.7310 37.8636 38.7712 -47.3248 -17.5304 -0.0000 -0.0000 2.0205 -5.3034 0.2853 -0.0265 -7.1250 0.0000 -0.0000 -24.5175 29.6670 10.0207 0.0000 -0.0000 0.0000 78.2959 -15.3704 23.5173 -94.8945 59.9093 -64.2374 0.0000 0.0000 8.6384 -28.6409 5.5293 -3.0123 7.1250 -0.0000 -0.0000 -1.4395 -23.6858 -0.7402
-29.6219 17.6462 -2.6774 -476.9800 86.3950 -475.2560 0.0000 0.0000 0.0000 -3.5549 0.3460 -11.8139 3.9761 12.1285 36.1881 1.6475 -10.2790 -23.0731 0.7714 -5.6080 -15.6512 0.0000 0.0000 0.0000 16.5243 9.9907 -6.3222 -1.5407 -7.8355 22.2156 -0.4490 -6.3238 -16.5424 -1.1135 6.7037 -18.8406 4.3447 -0.6185 16.0637 4.2488 0.4423 3.3263 1.9482 0.2876 -5.4675 7.3578 1.6524 -0.5174 -16.2508 1.2346 -12.1517 -6.3044 1.1512 -3.2708 0.0000 0.0000 0.0000 -74.8754 15.0877 38.5346 38.3861 -47.0841 -17.2478 -0.0000 -0.0000 1.8589 -6.4101 0.2308 -0.0259 -7.1250 0.0000 -0.0000 -25.3002 29.5663 10.4740 0.0000 0.0000 0.0000 77.3700 -15.0936 24.3245 -98.4976 59.7254 -67.3524 0.0000 0.0000 8.9097 -28.3212 5.7271 -3.0783 7.1250 -0.0000 -0.0000 -1.1929 -23.4805 -0.6189
-29.5964 17.6613 -2.6688 -478.6220 86.5158 -477.1620 0.0000 0.0000 0.0000 -3.6494 -0.3553 -11.1746 3.6587 11.6919 34.6505 1.7029 -9.0497 -23.3899 0.7691 -5.6001 -15.6285 0.0000 0.0000 0.0000 16.5296 10.1889 -5.4910 -1.4717 -7.6660 21.7042 -0.4181 -6.8217 -16.5907 -1.0842 6.6178 -18.5880 4.0997 -0.4292 15.8955 4.0211 0.6120 3.3255 1.8079 0.3688 -5.3768 7.4335 1.6860 -0.6363 -16.0654 1.3431 -11.5141 -6.2403 1.1602 -3.0524 0.0000 0.0000 0.0000 -74.4843 15.4923 39.2764 38.0672 -46.8822 -17.0146 -0.0000 -0.0000 1.6387 -7.1168 0.2876 -0.0359 -7.1250 0.0000 -0.0000 -25.8188 29.5837 10.7229 0.0000 0.0000 0.0000 76.2598 -14.6485 25.1650 -102.1762 59.4323 -70.5248 0.0000 0.0000 9.1567 -28.0075 5.8295 -3.0922 7.1250 -0.0000 -0.0000 -0.9561 -23.3836 -0.4982
-29.5698 17.6723 -2.6618 -479.9580 86.6400 -478.8000 0.0000 0.0000 0.0000 -3.7545 -1.1038 -10.4392 3.3517 11.2437 33.1061 1.7430 -7.9355 -23.6589 0.7670 -5.5924 -15.6062 0.0000 0.0000 0.0000 16.5395 10.3613 -4.6662 -1.4137 -7.5200 21.2655 -0.3930 -7.2518 -16.6679 -1.0562 6.5345 -18.3434 3.8624 -0.2389 15.7356 3.7584 0.7839 3.3167 1.6271 0.4504 -5.2985 7.4916 1.7203 -0.7021 -15.8129 1.4564 -10.8600 -6.1529 1.1715 -2.8397 0.0000 0.0000 0.0000 -73.9836 15.9463 40.0629 37.8140 -46.7201 -16.8301 -0.0000 -0.0000 1.3537 -7.4665 0.3986 -0.0522 -7.1250 0.0000 -0.0000 -26.0955 29.6669 10.8048 0.0000 0.0000 0.0000 74.9626 -14.0254 26.0129 -105.8457 59.0297 -73.6781 0.0000 0.0000 9.3439 -27.7412 5.8501 -3.0685 7.1250 -0.0000 -0.0000 -0.7584 -23.3764 -0.3953
-29.5425 17.6790 -2.6564 -480.9140 86.7350 -480.0830 0.0000 0.0000 0.0000 -3.8340 -1.9086 -9.6466 3.0646 10.7989 31.6045 1.7725 -6.9694 -23.8950 0.7685 -5.5977 -15.6215 0.0000 0.0000 0.0000 16.5857 10.5035 -3.8594 -1.3649 -7.3943 20.8890 -0.3734 -7.6189 -16.7679 -1.0294 6.4539 -18.1071 3.6517 -0.0518 15.5683 3.4784 0.9561 3.2990 1.4147 0.5315 -5.2244 7.5399 1.7507 -0.7093 -15.5040 1.5664 -10.2019 -6.0477 1.1822 -2.6382 -0.0000 -0.0000 0.0000 -73.3963 16.4397 40.8605 37.6275 -46.5998 -16.6944 -0.0000 -0.0000 0.9945 -7.5464 0.5426 -0.0719 -7.1250 0.0000 -0.0000 -26.1887 29.7932 10.7626 -0.0000 -0.0000 0.0000 73.4685 -13.2035 26.8349 -109.4401 58.5227 -76.7521 0.0000 0.0000 9.4647 -27.5494 5.7643 -2.9992 7.1250 -0.0000 -0.0000 -0.6205 -23.4843 -0.3219
-29.5147 17.6814 -2.6525 -481.4650 86.7821 -480.9810 0.0000 0.0000 0.0000 -3.8719 -2.7568 -8.8306 2.8047 10.3720 30.1898 1.7931 -6.1269 -24.0961 0.7730 -5.6138 -15.6678 0.0000 0.0000 0.0000 16.6837 10.6031 -3.0706 -1.3228 -7.2841 20.5599 -0.3593 -7.9223 -16.8855 -1.0027 6.3720 -17.8677 3.4720 0.1285 15.3891 3.1967 1.1257 3.2711 1.1850 0.6111 -5.1535 7.5736 1.7727 -0.6556 -15.1391 1.6664 -9.5431 -5.9242 1.1901 -2.4496 -0.0000 -0.0000 0.0000 -72.7504 16.9686 41.6346 37.5046 -46.5200 -16.6052 -0.0000 -0.0000 0.5576 -7.4330 0.6714 -0.0876 -7.1250 0.0000 -0.0000 -26.1407 29.9156 10.6519 -0.0000 -0.0000 0.0000 71.7675 -12.1756 27.5945 -112.8963 57.9234 -79.6906 0.0000 0.0000 9.4962 -27.4478 5.5810 -2.8918 7.1250 -0.0000 -0.0000 -0.5532 -23.6963 -0.2843
-29.4867 17.6792 -2.6499 -481.8620 86.7635 -481.7370 0.0000 0.0000 0.0000 -3.8635 -3.6498 -8.0240 2.5766 9.9758 28.8985 1.8091 -5.3764 -24.2823 0.7800 -5.6387 -15.7396 0.0000 0.0000 0.0000 16.8375 10.6419 -2.3060 -1.2854 -7.1842 20.2622 -0.3496 -8.1693 -17.0095 -0.9772 6.2929 -17.6366 3.3283 0.2917 15.2001 2.9224 1.2809 3.2267 0.9473 0.6833 -5.0934 7.5927 1.7829 -0.5484 -14.7237 1.7519 -8.8768 -5.7839 1.1926 -2.2711 -0.0000 -0.0000 0.0000 -72.0733 17.5319 42.3447 37.4378 -46.4765 -16.5567 -0.0000 -0.0000 0.0584 -7.2232 0.7780 -0.0986 -7.1250 0.0000 -0.0000 -26.0181 30.0229 10.5154 -0.0000 -0.0000 0.0000 69.8571 -10.9347 28.2651 -116.1368 57.2545 -82.4265 0.0000 0.0000 9.4487 -27.4785 5.3148 -2.7581 7.1250 -0.0000 -0.0000 -0.5872 -23.9938 -0.2977
